# xmcd
#
# Track frame offsets:
#	150
#	19588
#	30023
#	44877
#	60146
#	79629
#	92749
#	110999
#	129890
#	145432
#	159170
#	175765
#	192377
#	210403
#	225514
#
# Disc length: 3274 seconds
#
# Revision: 1
# Processed by: cddbd v1.5.2PL0 Copyright (c) Steve Scherf et al.
# Submitted via: audiograbber 1.83.01
#
DISCID=b60cc80f
DTITLE=Jonny Hill - Das Beste [CD 2)
DYEAR=2010
DGENRE=
TTITLE0=Hallo Teddybär
TTITLE1=Rauch in den Haaren
TTITLE2=Nur mit dir
TTITLE3=Du warst mehr
TTITLE4=Fünfzigtausend Kilometer
TTITLE5=Gott sei Dank gibt's das Radio
TTITLE6=Wölfe und Schafe
TTITLE7=Das Konzert
TTITLE8=Mehr als tausend kleine Sünden
TTITLE9=Wir beide werden niemals alt
TTITLE10=Tierra Libre
TTITLE11=Wie viel wert sind 20 Jahre
TTITLE12=Und dann seh ich diese Augen
TTITLE13=Schnee von gestern
TTITLE14=Teddybär ich danke dir
EXTD=30 Jahre Ruf Teddybär 1-4
EXTT0=
EXTT1=
EXTT2=
EXTT3=
EXTT4=
EXTT5=
EXTT6=
EXTT7=
EXTT8=
EXTT9=
EXTT10=
EXTT11=
EXTT12=
EXTT13=
EXTT14=
PLAYORDER=
